<?xml version="1.0" encoding="utf-8"?>
<!-- Generator: Adobe Illustrator 22.1.0, SVG Export Plug-In . SVG Version: 6.00 Build 0)  -->
<svg version="1.1" id="图层_1" xmlns="http://www.w3.org/2000/svg" xmlns:xlink="http://www.w3.org/1999/xlink" x="0px" y="0px"
	 viewBox="0 0 48 48" style="enable-background:new 0 0 48 48;" xml:space="preserve">
<style type="text/css">
	.st0{opacity:0;fill:#FFFFFF;}
	.st1{opacity:0.8;fill:#F7BD0C;enable-background:new    ;}
	.st2{fill:#2B50BA;}
</style>
<g id="组_1" transform="translate(-1097 -522)">
	<rect id="矩形_1" x="1097" y="522" class="st0" width="48" height="48"/>
	<path id="路径_3" class="st1" d="M1099,542.2c-0.5,0.3-0.8,0.9-0.5,1.5c0,0,0,0,0,0l0,0l0.5,1c0.3,0.5,0.9,0.8,1.5,0.5
		c0,0,0,0,0,0l11.3-5.7c0.1-0.1,0.2-0.1,0.3-0.3c-0.7-0.9-1.3-1.8-2-2.6L1099,542.2z M1130.8,566l2.2-12.3c-1.1-0.3-2.1-0.7-3.1-1.2
		c-0.1,0.1-0.1,0.3-0.1,0.4l-2.3,12.5c-0.1,0.6,0.3,1.2,0.9,1.3c0,0,0,0,0,0l1.1,0.2C1130.1,567,1130.7,566.6,1130.8,566
		C1130.8,566,1130.8,566,1130.8,566L1130.8,566z M1135,527.4c-4.6-3.4-11.1-2.5-14.6,2.1l0,0l-0.3,0.5c1.7,3.2,4.1,5.9,7,8.1
		c2.9,2.1,6.2,3.6,9.7,4.4l0.3-0.4C1140.6,537.4,1139.6,530.9,1135,527.4L1135,527.4z"/>
	<path id="路径_4" class="st2" d="M1138.4,539.6c-0.3,0.9-0.8,1.7-1.3,2.4l-0.3,0.4c-3.5-0.8-6.8-2.3-9.7-4.4
		c-2.9-2.2-5.3-4.9-7-8.1l0.3-0.5c0.6-0.7,1.2-1.4,1.9-2c-5.6-2.5-10.2-2.9-12-0.6c-2.6,3.4,2.5,11.6,11.3,18.2s18.1,9.2,20.7,5.8
		C1144.1,548.6,1142.2,544.2,1138.4,539.6z M1114.7,532.3c-0.7-0.6-0.9-1.6-0.3-2.3c0.6-0.7,1.6-0.9,2.3-0.3
		c0.7,0.6,0.9,1.6,0.3,2.3c0,0,0,0,0,0l0,0C1116.5,532.7,1115.4,532.9,1114.7,532.3C1114.7,532.3,1114.7,532.3,1114.7,532.3
		L1114.7,532.3z M1123.4,543c-0.7-0.6-0.9-1.6-0.3-2.3s1.6-0.9,2.3-0.3c0.7,0.6,0.9,1.6,0.3,2.3l0,0
		C1125.1,543.4,1124.1,543.5,1123.4,543L1123.4,543z M1136,548.3c-0.7-0.6-0.9-1.6-0.3-2.3c0.6-0.7,1.6-0.9,2.3-0.3
		c0.7,0.6,0.9,1.6,0.3,2.3c0,0,0,0,0,0l0,0C1137.8,548.7,1136.8,548.8,1136,548.3C1136,548.3,1136,548.3,1136,548.3L1136,548.3z"/>
</g>
</svg>
