<svg xmlns="http://www.w3.org/2000/svg" width="188.323" height="49" viewBox="0 0 188.323 49">
  <g id="画板_3" data-name="画板 3" transform="translate(-8.93 -4.8)">
    <text id="Addendum" transform="translate(8.93 41.8)" fill="#283a56" font-size="35" font-family="PingFang SC Medium, PingFang SC" letter-spacing="0.01em"><tspan x="0" y="0">Addendum</tspan></text>
    <path id="路径_1" data-name="路径 1" d="M161.3,17.184a.681.681,0,0,0-.3.915h0l.3.6a.681.681,0,0,0,.915.3l6.943-3.472a.547.547,0,0,0,.2-.156c-.424-.525-.826-1.116-1.206-1.619Zm19.479,14.6,1.373-7.535c-.647-.212-1.273-.447-1.9-.714a.647.647,0,0,0-.089.246l-1.4,7.635a.681.681,0,0,0,.558.793l.67.123a.67.67,0,0,0,.781-.547Zm2.556-23.654a6.407,6.407,0,0,0-8.93,1.284h0l-.19.279a15.338,15.338,0,0,0,4.275,4.967,15.483,15.483,0,0,0,5.961,2.679l.212-.268a6.4,6.4,0,0,0-1.328-8.941Z" transform="translate(9.023 0.357)" fill="#f7bd0c" opacity="0.8"/>
    <path id="路径_2" data-name="路径 2" d="M184.708,15.574a6.306,6.306,0,0,1-.815,1.5l-.212.268a15.483,15.483,0,0,1-5.961-2.713,15.338,15.338,0,0,1-4.275-4.967l.19-.279a6.419,6.419,0,0,1,1.172-1.194c-3.4-1.518-6.273-1.764-7.334-.357-1.574,2.11,1.529,7.1,6.943,11.163s11.073,5.637,12.659,3.539C188.2,21.111,187.086,18.42,184.708,15.574ZM170.2,11.109a1.02,1.02,0,1,1,1.429-.2h0a1.016,1.016,0,0,1-1.462.179Zm5.313,6.53a1.016,1.016,0,1,1,1.429-.2h0a1.016,1.016,0,0,1-1.418.2Zm7.747,3.26a1.02,1.02,0,1,1,1.429-.2h0a1,1,0,0,1-1.462.179Z" transform="translate(9.736 0.36)" fill="#2b50ba"/>
  </g>
</svg>
